<mxfile host="app.diagrams.net" modified="2024-01-23T23:04:16.237Z" agent="Mozilla/5.0 (Windows NT 10.0; Win64; x64) AppleWebKit/537.36 (KHTML, like Gecko) Chrome/120.0.0.0 Safari/537.36" etag="2TtZscUiRoF0srUTwgnl" version="22.1.21" type="github">
  <diagram name="Page-1" id="cr1Za1uVQgATXjZ6iJ6d">
    <mxGraphModel dx="819" dy="441" grid="1" gridSize="10" guides="1" tooltips="1" connect="1" arrows="1" fold="1" page="1" pageScale="1" pageWidth="1100" pageHeight="850" math="0" shadow="0">
      <root>
        <mxCell id="0" />
        <mxCell id="1" parent="0" />
        <mxCell id="AhOhHvn87h0xQgYjtJXQ-2" value="" style="rounded=0;whiteSpace=wrap;html=1;fillColor=none;strokeWidth=3;" parent="1" vertex="1">
          <mxGeometry x="60" y="60" width="960" height="440" as="geometry" />
        </mxCell>
        <mxCell id="AhOhHvn87h0xQgYjtJXQ-3" value="" style="rounded=0;whiteSpace=wrap;html=1;strokeWidth=3;fillColor=none;" parent="1" vertex="1">
          <mxGeometry x="60" y="560" width="260" height="240" as="geometry" />
        </mxCell>
        <mxCell id="AhOhHvn87h0xQgYjtJXQ-5" value="" style="rounded=0;whiteSpace=wrap;html=1;fillColor=#f5f5f5;fontColor=#333333;strokeColor=#666666;shadow=0;glass=0;" parent="1" vertex="1">
          <mxGeometry x="60" y="60" width="960" height="60" as="geometry" />
        </mxCell>
        <mxCell id="AhOhHvn87h0xQgYjtJXQ-6" value="Postdoc Offices" style="text;html=1;strokeColor=none;fillColor=none;align=center;verticalAlign=middle;whiteSpace=wrap;rounded=0;" parent="1" vertex="1">
          <mxGeometry x="70" y="75" width="60" height="30" as="geometry" />
        </mxCell>
        <mxCell id="AhOhHvn87h0xQgYjtJXQ-7" value="" style="rounded=0;whiteSpace=wrap;html=1;fillColor=none;" parent="1" vertex="1">
          <mxGeometry x="150" y="160" width="210" height="140" as="geometry" />
        </mxCell>
        <mxCell id="AhOhHvn87h0xQgYjtJXQ-9" value="" style="rounded=0;whiteSpace=wrap;html=1;fillColor=none;" parent="1" vertex="1">
          <mxGeometry x="60" y="300" width="240" height="110" as="geometry" />
        </mxCell>
        <mxCell id="AhOhHvn87h0xQgYjtJXQ-11" value="" style="rounded=0;whiteSpace=wrap;html=1;fillColor=#f5f5f5;fontColor=#333333;strokeColor=#666666;" parent="1" vertex="1">
          <mxGeometry x="300" y="400" width="190" height="100" as="geometry" />
        </mxCell>
        <mxCell id="-M64CqVJRw943yaDAng4-1" value="" style="rounded=0;whiteSpace=wrap;html=1;fillColor=#f5f5f5;fontColor=#333333;strokeColor=#666666;" vertex="1" parent="1">
          <mxGeometry x="600" y="400" width="420" height="100" as="geometry" />
        </mxCell>
        <mxCell id="-M64CqVJRw943yaDAng4-2" value="" style="rounded=0;whiteSpace=wrap;html=1;fillColor=none;" vertex="1" parent="1">
          <mxGeometry x="400" y="160" width="330" height="160" as="geometry" />
        </mxCell>
        <mxCell id="-M64CqVJRw943yaDAng4-3" value="" style="rounded=0;whiteSpace=wrap;html=1;fillColor=none;" vertex="1" parent="1">
          <mxGeometry x="530" y="320" width="50" height="60" as="geometry" />
        </mxCell>
        <mxCell id="-M64CqVJRw943yaDAng4-4" value="" style="rounded=0;whiteSpace=wrap;html=1;fillColor=none;" vertex="1" parent="1">
          <mxGeometry x="400" y="320" width="50" height="60" as="geometry" />
        </mxCell>
        <mxCell id="-M64CqVJRw943yaDAng4-5" value="" style="rounded=0;whiteSpace=wrap;html=1;fillColor=none;" vertex="1" parent="1">
          <mxGeometry x="840" y="160" width="180" height="100" as="geometry" />
        </mxCell>
        <mxCell id="-M64CqVJRw943yaDAng4-6" value="" style="rounded=0;whiteSpace=wrap;html=1;fillColor=none;" vertex="1" parent="1">
          <mxGeometry x="400" y="270" width="80" height="50" as="geometry" />
        </mxCell>
        <mxCell id="-M64CqVJRw943yaDAng4-7" value="" style="rounded=0;whiteSpace=wrap;html=1;fillColor=none;" vertex="1" parent="1">
          <mxGeometry x="400" y="220" width="80" height="50" as="geometry" />
        </mxCell>
        <mxCell id="-M64CqVJRw943yaDAng4-8" value="" style="rounded=0;whiteSpace=wrap;html=1;fillColor=none;" vertex="1" parent="1">
          <mxGeometry x="400" y="160" width="80" height="60" as="geometry" />
        </mxCell>
        <mxCell id="-M64CqVJRw943yaDAng4-9" value="" style="rounded=0;whiteSpace=wrap;html=1;fillColor=none;" vertex="1" parent="1">
          <mxGeometry x="960" y="350" width="60" height="50" as="geometry" />
        </mxCell>
        <mxCell id="-M64CqVJRw943yaDAng4-10" value="" style="rounded=0;whiteSpace=wrap;html=1;fillColor=none;" vertex="1" parent="1">
          <mxGeometry x="960" y="300" width="60" height="50" as="geometry" />
        </mxCell>
        <mxCell id="-M64CqVJRw943yaDAng4-11" value="" style="rounded=0;whiteSpace=wrap;html=1;fillColor=none;" vertex="1" parent="1">
          <mxGeometry x="510" y="160" width="60" height="40" as="geometry" />
        </mxCell>
        <mxCell id="-M64CqVJRw943yaDAng4-12" value="" style="rounded=0;whiteSpace=wrap;html=1;fillColor=none;" vertex="1" parent="1">
          <mxGeometry x="570" y="160" width="70" height="40" as="geometry" />
        </mxCell>
        <mxCell id="-M64CqVJRw943yaDAng4-13" value="" style="rounded=0;whiteSpace=wrap;html=1;fillColor=none;" vertex="1" parent="1">
          <mxGeometry x="660" y="160" width="70" height="40" as="geometry" />
        </mxCell>
        <mxCell id="-M64CqVJRw943yaDAng4-14" value="" style="rounded=0;whiteSpace=wrap;html=1;fillColor=none;" vertex="1" parent="1">
          <mxGeometry x="660" y="200" width="70" height="40" as="geometry" />
        </mxCell>
        <mxCell id="-M64CqVJRw943yaDAng4-15" value="" style="rounded=0;whiteSpace=wrap;html=1;fillColor=none;" vertex="1" parent="1">
          <mxGeometry x="660" y="240" width="70" height="40" as="geometry" />
        </mxCell>
        <mxCell id="-M64CqVJRw943yaDAng4-16" value="" style="rounded=0;whiteSpace=wrap;html=1;fillColor=none;" vertex="1" parent="1">
          <mxGeometry x="660" y="280" width="70" height="40" as="geometry" />
        </mxCell>
        <mxCell id="-M64CqVJRw943yaDAng4-17" value="" style="rounded=0;whiteSpace=wrap;html=1;fillColor=none;" vertex="1" parent="1">
          <mxGeometry x="570" y="200" width="70" height="40" as="geometry" />
        </mxCell>
        <mxCell id="-M64CqVJRw943yaDAng4-18" value="" style="rounded=0;whiteSpace=wrap;html=1;fillColor=none;" vertex="1" parent="1">
          <mxGeometry x="570" y="240" width="70" height="40" as="geometry" />
        </mxCell>
        <mxCell id="-M64CqVJRw943yaDAng4-19" value="" style="rounded=0;whiteSpace=wrap;html=1;fillColor=none;" vertex="1" parent="1">
          <mxGeometry x="570" y="280" width="70" height="40" as="geometry" />
        </mxCell>
        <mxCell id="-M64CqVJRw943yaDAng4-20" value="" style="rounded=0;whiteSpace=wrap;html=1;fillColor=#f5f5f5;fontColor=#333333;strokeColor=#666666;" vertex="1" parent="1">
          <mxGeometry x="60" y="410" width="120" height="90" as="geometry" />
        </mxCell>
        <mxCell id="-M64CqVJRw943yaDAng4-21" value="" style="rounded=0;whiteSpace=wrap;html=1;fillColor=none;" vertex="1" parent="1">
          <mxGeometry x="150" y="250" width="70" height="50" as="geometry" />
        </mxCell>
        <mxCell id="-M64CqVJRw943yaDAng4-22" value="" style="rounded=0;whiteSpace=wrap;html=1;fillColor=none;" vertex="1" parent="1">
          <mxGeometry x="220" y="250" width="70" height="50" as="geometry" />
        </mxCell>
        <mxCell id="-M64CqVJRw943yaDAng4-23" value="" style="rounded=0;whiteSpace=wrap;html=1;fillColor=none;" vertex="1" parent="1">
          <mxGeometry x="290" y="250" width="70" height="50" as="geometry" />
        </mxCell>
        <mxCell id="-M64CqVJRw943yaDAng4-24" value="" style="rounded=0;whiteSpace=wrap;html=1;fillColor=none;" vertex="1" parent="1">
          <mxGeometry x="450" y="320" width="50" height="60" as="geometry" />
        </mxCell>
        <mxCell id="-M64CqVJRw943yaDAng4-25" value="" style="rounded=0;whiteSpace=wrap;html=1;fillColor=none;" vertex="1" parent="1">
          <mxGeometry x="580" y="320" width="50" height="60" as="geometry" />
        </mxCell>
        <mxCell id="-M64CqVJRw943yaDAng4-26" value="" style="rounded=0;whiteSpace=wrap;html=1;fillColor=none;" vertex="1" parent="1">
          <mxGeometry x="630" y="320" width="50" height="60" as="geometry" />
        </mxCell>
        <mxCell id="-M64CqVJRw943yaDAng4-27" value="" style="rounded=0;whiteSpace=wrap;html=1;fillColor=none;" vertex="1" parent="1">
          <mxGeometry x="680" y="320" width="50" height="60" as="geometry" />
        </mxCell>
        <mxCell id="-M64CqVJRw943yaDAng4-28" value="" style="rounded=0;whiteSpace=wrap;html=1;fillColor=#f5f5f5;fontColor=#333333;strokeColor=#666666;" vertex="1" parent="1">
          <mxGeometry x="840" y="260" width="180" height="40" as="geometry" />
        </mxCell>
        <mxCell id="-M64CqVJRw943yaDAng4-29" value="" style="rounded=0;whiteSpace=wrap;html=1;fillColor=none;" vertex="1" parent="1">
          <mxGeometry x="320" y="180" width="40" height="50" as="geometry" />
        </mxCell>
        <mxCell id="-M64CqVJRw943yaDAng4-30" value="" style="rounded=0;whiteSpace=wrap;html=1;fillColor=none;" vertex="1" parent="1">
          <mxGeometry x="273" y="160" width="40" height="50" as="geometry" />
        </mxCell>
        <mxCell id="-M64CqVJRw943yaDAng4-31" value="" style="rounded=0;whiteSpace=wrap;html=1;fillColor=none;rotation=90;" vertex="1" parent="1">
          <mxGeometry x="220" y="155" width="40" height="50" as="geometry" />
        </mxCell>
        <mxCell id="-M64CqVJRw943yaDAng4-32" value="" style="rounded=0;whiteSpace=wrap;html=1;fillColor=none;rotation=0;" vertex="1" parent="1">
          <mxGeometry x="165" y="160" width="40" height="50" as="geometry" />
        </mxCell>
        <mxCell id="-M64CqVJRw943yaDAng4-33" value="" style="rounded=0;whiteSpace=wrap;html=1;fillColor=none;rotation=90;" vertex="1" parent="1">
          <mxGeometry x="255" y="405" width="40" height="50" as="geometry" />
        </mxCell>
        <mxCell id="-M64CqVJRw943yaDAng4-34" value="" style="rounded=0;whiteSpace=wrap;html=1;fillColor=none;rotation=90;" vertex="1" parent="1">
          <mxGeometry x="205" y="405" width="40" height="50" as="geometry" />
        </mxCell>
        <mxCell id="-M64CqVJRw943yaDAng4-35" value="" style="rounded=0;whiteSpace=wrap;html=1;fillColor=none;rotation=90;" vertex="1" parent="1">
          <mxGeometry x="205" y="455" width="40" height="50" as="geometry" />
        </mxCell>
        <mxCell id="-M64CqVJRw943yaDAng4-36" value="" style="rounded=0;whiteSpace=wrap;html=1;fillColor=none;rotation=90;" vertex="1" parent="1">
          <mxGeometry x="255" y="455" width="40" height="50" as="geometry" />
        </mxCell>
        <mxCell id="-M64CqVJRw943yaDAng4-37" value="" style="rounded=0;whiteSpace=wrap;html=1;fillColor=none;rotation=90;" vertex="1" parent="1">
          <mxGeometry x="247.5" y="357.5" width="40" height="65" as="geometry" />
        </mxCell>
        <mxCell id="-M64CqVJRw943yaDAng4-38" value="" style="rounded=0;whiteSpace=wrap;html=1;fillColor=none;rotation=90;" vertex="1" parent="1">
          <mxGeometry x="247.5" y="287" width="40" height="65" as="geometry" />
        </mxCell>
        <mxCell id="-M64CqVJRw943yaDAng4-39" value="" style="rounded=0;whiteSpace=wrap;html=1;fillColor=none;rotation=-180;" vertex="1" parent="1">
          <mxGeometry x="195" y="300" width="40" height="55" as="geometry" />
        </mxCell>
        <mxCell id="-M64CqVJRw943yaDAng4-40" value="" style="rounded=0;whiteSpace=wrap;html=1;fillColor=none;rotation=-180;" vertex="1" parent="1">
          <mxGeometry x="60" y="300" width="40" height="55" as="geometry" />
        </mxCell>
        <mxCell id="-M64CqVJRw943yaDAng4-41" value="" style="rounded=0;whiteSpace=wrap;html=1;fillColor=none;rotation=90;" vertex="1" parent="1">
          <mxGeometry x="72.5" y="357.5" width="40" height="65" as="geometry" />
        </mxCell>
        <mxCell id="-M64CqVJRw943yaDAng4-42" value="" style="rounded=0;whiteSpace=wrap;html=1;fillColor=none;rotation=90;" vertex="1" parent="1">
          <mxGeometry x="108" y="293" width="40" height="55" as="geometry" />
        </mxCell>
        <mxCell id="-M64CqVJRw943yaDAng4-44" value="" style="rounded=0;whiteSpace=wrap;html=1;fillColor=none;rotation=-180;" vertex="1" parent="1">
          <mxGeometry x="155" y="300" width="40" height="55" as="geometry" />
        </mxCell>
      </root>
    </mxGraphModel>
  </diagram>
</mxfile>
